<svg xmlns="http://www.w3.org/2000/svg" xmlns:xlink="http://www.w3.org/1999/xlink" version="1.1" class="marks" width="542" height="239" viewBox="0 0 542 239"><rect width="542" height="239" fill="white"/><g fill="none" stroke-miterlimit="10" transform="translate(65,22)"><g class="mark-group role-frame root" role="graphics-object" aria-roledescription="group mark container"><g transform="translate(0,0)"><path class="background" aria-hidden="true" d="M0.5,0.5h400v180h-400Z" stroke="#ddd"/><g><g class="mark-group role-axis" aria-hidden="true"><g transform="translate(0.5,180.5)"><path class="background" aria-hidden="true" d="M0,0h0v0h0Z" pointer-events="none"/><g><g class="mark-rule role-axis-grid" pointer-events="none"><line transform="translate(0,0)" x2="0" y2="-180" stroke="#ddd" stroke-width="1" opacity="1"/><line transform="translate(50,0)" x2="0" y2="-180" stroke="#ddd" stroke-width="1" opacity="1"/><line transform="translate(100,0)" x2="0" y2="-180" stroke="#ddd" stroke-width="1" opacity="1"/><line transform="translate(150,0)" x2="0" y2="-180" stroke="#ddd" stroke-width="1" opacity="1"/><line transform="translate(200,0)" x2="0" y2="-180" stroke="#ddd" stroke-width="1" opacity="1"/><line transform="translate(250,0)" x2="0" y2="-180" stroke="#ddd" stroke-width="1" opacity="1"/><line transform="translate(300,0)" x2="0" y2="-180" stroke="#ddd" stroke-width="1" opacity="1"/><line transform="translate(350,0)" x2="0" y2="-180" stroke="#ddd" stroke-width="1" opacity="1"/><line transform="translate(400,0)" x2="0" y2="-180" stroke="#ddd" stroke-width="1" opacity="1"/></g></g><path class="foreground" aria-hidden="true" d="" pointer-events="none" display="none"/></g></g><g class="mark-group role-axis" role="graphics-symbol" aria-roledescription="axis" aria-label="X-axis titled 'price' for a linear scale with values from 0 to 160,000"><g transform="translate(0.5,180.5)"><path class="background" aria-hidden="true" d="M0,0h0v0h0Z" pointer-events="none"/><g><g class="mark-rule role-axis-tick" pointer-events="none"><line transform="translate(0,0)" x2="0" y2="5" stroke="#888" stroke-width="1" opacity="1"/><line transform="translate(50,0)" x2="0" y2="5" stroke="#888" stroke-width="1" opacity="1"/><line transform="translate(100,0)" x2="0" y2="5" stroke="#888" stroke-width="1" opacity="1"/><line transform="translate(150,0)" x2="0" y2="5" stroke="#888" stroke-width="1" opacity="1"/><line transform="translate(200,0)" x2="0" y2="5" stroke="#888" stroke-width="1" opacity="1"/><line transform="translate(250,0)" x2="0" y2="5" stroke="#888" stroke-width="1" opacity="1"/><line transform="translate(300,0)" x2="0" y2="5" stroke="#888" stroke-width="1" opacity="1"/><line transform="translate(350,0)" x2="0" y2="5" stroke="#888" stroke-width="1" opacity="1"/><line transform="translate(400,0)" x2="0" y2="5" stroke="#888" stroke-width="1" opacity="1"/></g><g class="mark-text role-axis-label" pointer-events="none"><text text-anchor="start" transform="translate(0,15)" font-family="sans-serif" font-size="10px" fill="#000" opacity="1">0</text><text text-anchor="middle" transform="translate(50,15)" font-family="sans-serif" font-size="10px" fill="#000" opacity="0">20,000</text><text text-anchor="middle" transform="translate(100,15)" font-family="sans-serif" font-size="10px" fill="#000" opacity="1">40,000</text><text text-anchor="middle" transform="translate(150,15)" font-family="sans-serif" font-size="10px" fill="#000" opacity="0">60,000</text><text text-anchor="middle" transform="translate(200,15)" font-family="sans-serif" font-size="10px" fill="#000" opacity="1">80,000</text><text text-anchor="middle" transform="translate(250,15)" font-family="sans-serif" font-size="10px" fill="#000" opacity="0">100,000</text><text text-anchor="middle" transform="translate(300,15)" font-family="sans-serif" font-size="10px" fill="#000" opacity="1">120,000</text><text text-anchor="middle" transform="translate(350,15)" font-family="sans-serif" font-size="10px" fill="#000" opacity="0">140,000</text><text text-anchor="end" transform="translate(400,15)" font-family="sans-serif" font-size="10px" fill="#000" opacity="1">160,000</text></g><g class="mark-rule role-axis-domain" pointer-events="none"><line transform="translate(0,0)" x2="400" y2="0" stroke="#888" stroke-width="1" opacity="1"/></g><g class="mark-text role-axis-title" pointer-events="none"><text text-anchor="middle" transform="translate(200,30)" font-family="sans-serif" font-size="11px" font-weight="bold" fill="#000" opacity="1">price</text></g></g><path class="foreground" aria-hidden="true" d="" pointer-events="none" display="none"/></g></g><g class="mark-group role-axis" role="graphics-symbol" aria-roledescription="axis" aria-label="Y-axis titled 'brand' for a discrete scale with 9 values: audi, bmw, ford, hyundi, merc, ending with vw"><g transform="translate(0.5,0.5)"><path class="background" aria-hidden="true" d="M0,0h0v0h0Z" pointer-events="none"/><g><g class="mark-rule role-axis-tick" pointer-events="none"><line transform="translate(0,10)" x2="-5" y2="0" stroke="#888" stroke-width="1" opacity="1"/><line transform="translate(0,30)" x2="-5" y2="0" stroke="#888" stroke-width="1" opacity="1"/><line transform="translate(0,50)" x2="-5" y2="0" stroke="#888" stroke-width="1" opacity="1"/><line transform="translate(0,70)" x2="-5" y2="0" stroke="#888" stroke-width="1" opacity="1"/><line transform="translate(0,90)" x2="-5" y2="0" stroke="#888" stroke-width="1" opacity="1"/><line transform="translate(0,110)" x2="-5" y2="0" stroke="#888" stroke-width="1" opacity="1"/><line transform="translate(0,130)" x2="-5" y2="0" stroke="#888" stroke-width="1" opacity="1"/><line transform="translate(0,150)" x2="-5" y2="0" stroke="#888" stroke-width="1" opacity="1"/><line transform="translate(0,170)" x2="-5" y2="0" stroke="#888" stroke-width="1" opacity="1"/></g><g class="mark-text role-axis-label" pointer-events="none"><text text-anchor="end" transform="translate(-7,12.5)" font-family="sans-serif" font-size="10px" fill="#000" opacity="1">audi</text><text text-anchor="end" transform="translate(-7,32.5)" font-family="sans-serif" font-size="10px" fill="#000" opacity="1">bmw</text><text text-anchor="end" transform="translate(-7,52.5)" font-family="sans-serif" font-size="10px" fill="#000" opacity="1">ford</text><text text-anchor="end" transform="translate(-7,72.5)" font-family="sans-serif" font-size="10px" fill="#000" opacity="1">hyundi</text><text text-anchor="end" transform="translate(-7,92.5)" font-family="sans-serif" font-size="10px" fill="#000" opacity="1">merc</text><text text-anchor="end" transform="translate(-7,112.5)" font-family="sans-serif" font-size="10px" fill="#000" opacity="1">skoda</text><text text-anchor="end" transform="translate(-7,132.5)" font-family="sans-serif" font-size="10px" fill="#000" opacity="1">toyota</text><text text-anchor="end" transform="translate(-7,152.5)" font-family="sans-serif" font-size="10px" fill="#000" opacity="1">vauxhall</text><text text-anchor="end" transform="translate(-7,172.5)" font-family="sans-serif" font-size="10px" fill="#000" opacity="1">vw</text></g><g class="mark-rule role-axis-domain" pointer-events="none"><line transform="translate(0,0)" x2="0" y2="180" stroke="#888" stroke-width="1" opacity="1"/></g><g class="mark-text role-axis-title" pointer-events="none"><text text-anchor="middle" transform="translate(-49,90) rotate(-90) translate(0,-2)" font-family="sans-serif" font-size="11px" font-weight="bold" fill="#000" opacity="1">brand</text></g></g><path class="foreground" aria-hidden="true" d="" pointer-events="none" display="none"/></g></g><g class="mark-symbol role-mark layer_0_layer_0_marks" role="graphics-object" aria-roledescription="symbol mark container"><path aria-label="price: 42995; brand: toyota" role="graphics-symbol" aria-roledescription="point" transform="translate(107.4875,130)" d="M2.7386127875258306,0A2.7386127875258306,2.7386127875258306,0,1,1,-2.7386127875258306,0A2.7386127875258306,2.7386127875258306,0,1,1,2.7386127875258306,0" stroke="#b279a2" stroke-width="2" opacity="0.7"/><path aria-label="price: 42489; brand: ford" role="graphics-symbol" aria-roledescription="point" transform="translate(106.2225,50)" d="M2.7386127875258306,0A2.7386127875258306,2.7386127875258306,0,1,1,-2.7386127875258306,0A2.7386127875258306,2.7386127875258306,0,1,1,2.7386127875258306,0" stroke="#e45756" stroke-width="2" opacity="0.7"/><path aria-label="price: 69994; brand: vw" role="graphics-symbol" aria-roledescription="point" transform="translate(174.98499999999999,170)" d="M2.7386127875258306,0A2.7386127875258306,2.7386127875258306,0,1,1,-2.7386127875258306,0A2.7386127875258306,2.7386127875258306,0,1,1,2.7386127875258306,0" stroke="#9d755d" stroke-width="2" opacity="0.7"/><path aria-label="price: 135124; brand: merc" role="graphics-symbol" aria-roledescription="point" transform="translate(337.81,90)" d="M2.7386127875258306,0A2.7386127875258306,2.7386127875258306,0,1,1,-2.7386127875258306,0A2.7386127875258306,2.7386127875258306,0,1,1,2.7386127875258306,0" stroke="#54a24b" stroke-width="2" opacity="0.7"/><path aria-label="price: 109995; brand: merc" role="graphics-symbol" aria-roledescription="point" transform="translate(274.9875,90)" d="M2.7386127875258306,0A2.7386127875258306,2.7386127875258306,0,1,1,-2.7386127875258306,0A2.7386127875258306,2.7386127875258306,0,1,1,2.7386127875258306,0" stroke="#54a24b" stroke-width="2" opacity="0.7"/><path aria-label="price: 36999; brand: hyundi" role="graphics-symbol" aria-roledescription="point" transform="translate(92.4975,70)" d="M2.7386127875258306,0A2.7386127875258306,2.7386127875258306,0,1,1,-2.7386127875258306,0A2.7386127875258306,2.7386127875258306,0,1,1,2.7386127875258306,0" stroke="#72b7b2" stroke-width="2" opacity="0.7"/><path aria-label="price: 33791; brand: hyundi" role="graphics-symbol" aria-roledescription="point" transform="translate(84.4775,70)" d="M2.7386127875258306,0A2.7386127875258306,2.7386127875258306,0,1,1,-2.7386127875258306,0A2.7386127875258306,2.7386127875258306,0,1,1,2.7386127875258306,0" stroke="#72b7b2" stroke-width="2" opacity="0.7"/><path aria-label="price: 37991; brand: ford" role="graphics-symbol" aria-roledescription="point" transform="translate(94.9775,50)" d="M2.7386127875258306,0A2.7386127875258306,2.7386127875258306,0,1,1,-2.7386127875258306,0A2.7386127875258306,2.7386127875258306,0,1,1,2.7386127875258306,0" stroke="#e45756" stroke-width="2" opacity="0.7"/><path aria-label="price: 35995; brand: hyundi" role="graphics-symbol" aria-roledescription="point" transform="translate(89.9875,70)" d="M2.7386127875258306,0A2.7386127875258306,2.7386127875258306,0,1,1,-2.7386127875258306,0A2.7386127875258306,2.7386127875258306,0,1,1,2.7386127875258306,0" stroke="#72b7b2" stroke-width="2" opacity="0.7"/><path aria-label="price: 32995; brand: hyundi" role="graphics-symbol" aria-roledescription="point" transform="translate(82.4875,70)" d="M2.7386127875258306,0A2.7386127875258306,2.7386127875258306,0,1,1,-2.7386127875258306,0A2.7386127875258306,2.7386127875258306,0,1,1,2.7386127875258306,0" stroke="#72b7b2" stroke-width="2" opacity="0.7"/><path aria-label="price: 49499; brand: toyota" role="graphics-symbol" aria-roledescription="point" transform="translate(123.74750000000002,130)" d="M2.7386127875258306,0A2.7386127875258306,2.7386127875258306,0,1,1,-2.7386127875258306,0A2.7386127875258306,2.7386127875258306,0,1,1,2.7386127875258306,0" stroke="#b279a2" stroke-width="2" opacity="0.7"/><path aria-label="price: 34495; brand: hyundi" role="graphics-symbol" aria-roledescription="point" transform="translate(86.2375,70)" d="M2.7386127875258306,0A2.7386127875258306,2.7386127875258306,0,1,1,-2.7386127875258306,0A2.7386127875258306,2.7386127875258306,0,1,1,2.7386127875258306,0" stroke="#72b7b2" stroke-width="2" opacity="0.7"/><path aria-label="price: 47498; brand: toyota" role="graphics-symbol" aria-roledescription="point" transform="translate(118.74499999999999,130)" d="M2.7386127875258306,0A2.7386127875258306,2.7386127875258306,0,1,1,-2.7386127875258306,0A2.7386127875258306,2.7386127875258306,0,1,1,2.7386127875258306,0" stroke="#b279a2" stroke-width="2" opacity="0.7"/><path aria-label="price: 49999; brand: ford" role="graphics-symbol" aria-roledescription="point" transform="translate(124.9975,50)" d="M2.7386127875258306,0A2.7386127875258306,2.7386127875258306,0,1,1,-2.7386127875258306,0A2.7386127875258306,2.7386127875258306,0,1,1,2.7386127875258306,0" stroke="#e45756" stroke-width="2" opacity="0.7"/><path aria-label="price: 52999; brand: vw" role="graphics-symbol" aria-roledescription="point" transform="translate(132.4975,170)" d="M2.7386127875258306,0A2.7386127875258306,2.7386127875258306,0,1,1,-2.7386127875258306,0A2.7386127875258306,2.7386127875258306,0,1,1,2.7386127875258306,0" stroke="#9d755d" stroke-width="2" opacity="0.7"/><path aria-label="price: 139948; brand: merc" role="graphics-symbol" aria-roledescription="point" transform="translate(349.87,90)" d="M2.7386127875258306,0A2.7386127875258306,2.7386127875258306,0,1,1,-2.7386127875258306,0A2.7386127875258306,2.7386127875258306,0,1,1,2.7386127875258306,0" stroke="#54a24b" stroke-width="2" opacity="0.7"/><path aria-label="price: 54995; brand: vw" role="graphics-symbol" aria-roledescription="point" transform="translate(137.4875,170)" d="M2.7386127875258306,0A2.7386127875258306,2.7386127875258306,0,1,1,-2.7386127875258306,0A2.7386127875258306,2.7386127875258306,0,1,1,2.7386127875258306,0" stroke="#9d755d" stroke-width="2" opacity="0.7"/><path aria-label="price: 93499; brand: merc" role="graphics-symbol" aria-roledescription="point" transform="translate(233.7475,90)" d="M2.7386127875258306,0A2.7386127875258306,2.7386127875258306,0,1,1,-2.7386127875258306,0A2.7386127875258306,2.7386127875258306,0,1,1,2.7386127875258306,0" stroke="#54a24b" stroke-width="2" opacity="0.7"/><path aria-label="price: 39990; brand: ford" role="graphics-symbol" aria-roledescription="point" transform="translate(99.97500000000001,50)" d="M2.7386127875258306,0A2.7386127875258306,2.7386127875258306,0,1,1,-2.7386127875258306,0A2.7386127875258306,2.7386127875258306,0,1,1,2.7386127875258306,0" stroke="#e45756" stroke-width="2" opacity="0.7"/><path aria-label="price: 52990; brand: toyota" role="graphics-symbol" aria-roledescription="point" transform="translate(132.47500000000002,130)" d="M2.7386127875258306,0A2.7386127875258306,2.7386127875258306,0,1,1,-2.7386127875258306,0A2.7386127875258306,2.7386127875258306,0,1,1,2.7386127875258306,0" stroke="#b279a2" stroke-width="2" opacity="0.7"/><path aria-label="price: 54991; brand: toyota" role="graphics-symbol" aria-roledescription="point" transform="translate(137.47750000000002,130)" d="M2.7386127875258306,0A2.7386127875258306,2.7386127875258306,0,1,1,-2.7386127875258306,0A2.7386127875258306,2.7386127875258306,0,1,1,2.7386127875258306,0" stroke="#b279a2" stroke-width="2" opacity="0.7"/><path aria-label="price: 137995; brand: audi" role="graphics-symbol" aria-roledescription="point" transform="translate(344.9875,10)" d="M2.7386127875258306,0A2.7386127875258306,2.7386127875258306,0,1,1,-2.7386127875258306,0A2.7386127875258306,2.7386127875258306,0,1,1,2.7386127875258306,0" stroke="#4c78a8" stroke-width="2" opacity="0.7"/><path aria-label="price: 49995; brand: toyota" role="graphics-symbol" aria-roledescription="point" transform="translate(124.98750000000001,130)" d="M2.7386127875258306,0A2.7386127875258306,2.7386127875258306,0,1,1,-2.7386127875258306,0A2.7386127875258306,2.7386127875258306,0,1,1,2.7386127875258306,0" stroke="#b279a2" stroke-width="2" opacity="0.7"/><path aria-label="price: 33999; brand: hyundi" role="graphics-symbol" aria-roledescription="point" transform="translate(84.9975,70)" d="M2.7386127875258306,0A2.7386127875258306,2.7386127875258306,0,1,1,-2.7386127875258306,0A2.7386127875258306,2.7386127875258306,0,1,1,2.7386127875258306,0" stroke="#72b7b2" stroke-width="2" opacity="0.7"/><path aria-label="price: 52995; brand: vw" role="graphics-symbol" aria-roledescription="point" transform="translate(132.4875,170)" d="M2.7386127875258306,0A2.7386127875258306,2.7386127875258306,0,1,1,-2.7386127875258306,0A2.7386127875258306,2.7386127875258306,0,1,1,2.7386127875258306,0" stroke="#9d755d" stroke-width="2" opacity="0.7"/><path aria-label="price: 137500; brand: audi" role="graphics-symbol" aria-roledescription="point" transform="translate(343.75,10)" d="M2.7386127875258306,0A2.7386127875258306,2.7386127875258306,0,1,1,-2.7386127875258306,0A2.7386127875258306,2.7386127875258306,0,1,1,2.7386127875258306,0" stroke="#4c78a8" stroke-width="2" opacity="0.7"/><path aria-label="price: 49990; brand: toyota" role="graphics-symbol" aria-roledescription="point" transform="translate(124.975,130)" d="M2.7386127875258306,0A2.7386127875258306,2.7386127875258306,0,1,1,-2.7386127875258306,0A2.7386127875258306,2.7386127875258306,0,1,1,2.7386127875258306,0" stroke="#b279a2" stroke-width="2" opacity="0.7"/><path aria-label="price: 38489; brand: ford" role="graphics-symbol" aria-roledescription="point" transform="translate(96.2225,50)" d="M2.7386127875258306,0A2.7386127875258306,2.7386127875258306,0,1,1,-2.7386127875258306,0A2.7386127875258306,2.7386127875258306,0,1,1,2.7386127875258306,0" stroke="#e45756" stroke-width="2" opacity="0.7"/><path aria-label="price: 104590; brand: merc" role="graphics-symbol" aria-roledescription="point" transform="translate(261.47499999999997,90)" d="M2.7386127875258306,0A2.7386127875258306,2.7386127875258306,0,1,1,-2.7386127875258306,0A2.7386127875258306,2.7386127875258306,0,1,1,2.7386127875258306,0" stroke="#54a24b" stroke-width="2" opacity="0.7"/><path aria-label="price: 54550; brand: toyota" role="graphics-symbol" aria-roledescription="point" transform="translate(136.375,130)" d="M2.7386127875258306,0A2.7386127875258306,2.7386127875258306,0,1,1,-2.7386127875258306,0A2.7386127875258306,2.7386127875258306,0,1,1,2.7386127875258306,0" stroke="#b279a2" stroke-width="2" opacity="0.7"/><path aria-label="price: 32995; brand: hyundi" role="graphics-symbol" aria-roledescription="point" transform="translate(82.4875,70)" d="M2.7386127875258306,0A2.7386127875258306,2.7386127875258306,0,1,1,-2.7386127875258306,0A2.7386127875258306,2.7386127875258306,0,1,1,2.7386127875258306,0" stroke="#72b7b2" stroke-width="2" opacity="0.7"/><path aria-label="price: 41499; brand: toyota" role="graphics-symbol" aria-roledescription="point" transform="translate(103.74749999999999,130)" d="M2.7386127875258306,0A2.7386127875258306,2.7386127875258306,0,1,1,-2.7386127875258306,0A2.7386127875258306,2.7386127875258306,0,1,1,2.7386127875258306,0" stroke="#b279a2" stroke-width="2" opacity="0.7"/><path aria-label="price: 57991; brand: vw" role="graphics-symbol" aria-roledescription="point" transform="translate(144.9775,170)" d="M2.7386127875258306,0A2.7386127875258306,2.7386127875258306,0,1,1,-2.7386127875258306,0A2.7386127875258306,2.7386127875258306,0,1,1,2.7386127875258306,0" stroke="#9d755d" stroke-width="2" opacity="0.7"/><path aria-label="price: 35495; brand: hyundi" role="graphics-symbol" aria-roledescription="point" transform="translate(88.7375,70)" d="M2.7386127875258306,0A2.7386127875258306,2.7386127875258306,0,1,1,-2.7386127875258306,0A2.7386127875258306,2.7386127875258306,0,1,1,2.7386127875258306,0" stroke="#72b7b2" stroke-width="2" opacity="0.7"/><path aria-label="price: 49991; brand: toyota" role="graphics-symbol" aria-roledescription="point" transform="translate(124.9775,130)" d="M2.7386127875258306,0A2.7386127875258306,2.7386127875258306,0,1,1,-2.7386127875258306,0A2.7386127875258306,2.7386127875258306,0,1,1,2.7386127875258306,0" stroke="#b279a2" stroke-width="2" opacity="0.7"/><path aria-label="price: 33900; brand: hyundi" role="graphics-symbol" aria-roledescription="point" transform="translate(84.75,70)" d="M2.7386127875258306,0A2.7386127875258306,2.7386127875258306,0,1,1,-2.7386127875258306,0A2.7386127875258306,2.7386127875258306,0,1,1,2.7386127875258306,0" stroke="#72b7b2" stroke-width="2" opacity="0.7"/><path aria-label="price: 32980; brand: hyundi" role="graphics-symbol" aria-roledescription="point" transform="translate(82.45,70)" d="M2.7386127875258306,0A2.7386127875258306,2.7386127875258306,0,1,1,-2.7386127875258306,0A2.7386127875258306,2.7386127875258306,0,1,1,2.7386127875258306,0" stroke="#72b7b2" stroke-width="2" opacity="0.7"/><path aria-label="price: 40495; brand: ford" role="graphics-symbol" aria-roledescription="point" transform="translate(101.2375,50)" d="M2.7386127875258306,0A2.7386127875258306,2.7386127875258306,0,1,1,-2.7386127875258306,0A2.7386127875258306,2.7386127875258306,0,1,1,2.7386127875258306,0" stroke="#e45756" stroke-width="2" opacity="0.7"/><path aria-label="price: 41000; brand: ford" role="graphics-symbol" aria-roledescription="point" transform="translate(102.49999999999999,50)" d="M2.7386127875258306,0A2.7386127875258306,2.7386127875258306,0,1,1,-2.7386127875258306,0A2.7386127875258306,2.7386127875258306,0,1,1,2.7386127875258306,0" stroke="#e45756" stroke-width="2" opacity="0.7"/><path aria-label="price: 125000; brand: audi" role="graphics-symbol" aria-roledescription="point" transform="translate(312.5,10)" d="M2.7386127875258306,0A2.7386127875258306,2.7386127875258306,0,1,1,-2.7386127875258306,0A2.7386127875258306,2.7386127875258306,0,1,1,2.7386127875258306,0" stroke="#4c78a8" stroke-width="2" opacity="0.7"/><path aria-label="price: 79989; brand: merc" role="graphics-symbol" aria-roledescription="point" transform="translate(199.9725,90)" d="M2.7386127875258306,0A2.7386127875258306,2.7386127875258306,0,1,1,-2.7386127875258306,0A2.7386127875258306,2.7386127875258306,0,1,1,2.7386127875258306,0" stroke="#54a24b" stroke-width="2" opacity="0.7"/><path aria-label="price: 36895; brand: hyundi" role="graphics-symbol" aria-roledescription="point" transform="translate(92.2375,70)" d="M2.7386127875258306,0A2.7386127875258306,2.7386127875258306,0,1,1,-2.7386127875258306,0A2.7386127875258306,2.7386127875258306,0,1,1,2.7386127875258306,0" stroke="#72b7b2" stroke-width="2" opacity="0.7"/><path aria-label="price: 33699; brand: hyundi" role="graphics-symbol" aria-roledescription="point" transform="translate(84.2475,70)" d="M2.7386127875258306,0A2.7386127875258306,2.7386127875258306,0,1,1,-2.7386127875258306,0A2.7386127875258306,2.7386127875258306,0,1,1,2.7386127875258306,0" stroke="#72b7b2" stroke-width="2" opacity="0.7"/><path aria-label="price: 94990; brand: audi" role="graphics-symbol" aria-roledescription="point" transform="translate(237.47500000000002,10)" d="M2.7386127875258306,0A2.7386127875258306,2.7386127875258306,0,1,1,-2.7386127875258306,0A2.7386127875258306,2.7386127875258306,0,1,1,2.7386127875258306,0" stroke="#4c78a8" stroke-width="2" opacity="0.7"/><path aria-label="price: 109990; brand: audi" role="graphics-symbol" aria-roledescription="point" transform="translate(274.975,10)" d="M2.7386127875258306,0A2.7386127875258306,2.7386127875258306,0,1,1,-2.7386127875258306,0A2.7386127875258306,2.7386127875258306,0,1,1,2.7386127875258306,0" stroke="#4c78a8" stroke-width="2" opacity="0.7"/><path aria-label="price: 54995; brand: vw" role="graphics-symbol" aria-roledescription="point" transform="translate(137.4875,170)" d="M2.7386127875258306,0A2.7386127875258306,2.7386127875258306,0,1,1,-2.7386127875258306,0A2.7386127875258306,2.7386127875258306,0,1,1,2.7386127875258306,0" stroke="#9d755d" stroke-width="2" opacity="0.7"/><path aria-label="price: 36999; brand: hyundi" role="graphics-symbol" aria-roledescription="point" transform="translate(92.4975,70)" d="M2.7386127875258306,0A2.7386127875258306,2.7386127875258306,0,1,1,-2.7386127875258306,0A2.7386127875258306,2.7386127875258306,0,1,1,2.7386127875258306,0" stroke="#72b7b2" stroke-width="2" opacity="0.7"/><path aria-label="price: 57991; brand: vw" role="graphics-symbol" aria-roledescription="point" transform="translate(144.9775,170)" d="M2.7386127875258306,0A2.7386127875258306,2.7386127875258306,0,1,1,-2.7386127875258306,0A2.7386127875258306,2.7386127875258306,0,1,1,2.7386127875258306,0" stroke="#9d755d" stroke-width="2" opacity="0.7"/><path aria-label="price: 44935; brand: toyota" role="graphics-symbol" aria-roledescription="point" transform="translate(112.3375,130)" d="M2.7386127875258306,0A2.7386127875258306,2.7386127875258306,0,1,1,-2.7386127875258306,0A2.7386127875258306,2.7386127875258306,0,1,1,2.7386127875258306,0" stroke="#b279a2" stroke-width="2" opacity="0.7"/><path aria-label="price: 48950; brand: toyota" role="graphics-symbol" aria-roledescription="point" transform="translate(122.37499999999999,130)" d="M2.7386127875258306,0A2.7386127875258306,2.7386127875258306,0,1,1,-2.7386127875258306,0A2.7386127875258306,2.7386127875258306,0,1,1,2.7386127875258306,0" stroke="#b279a2" stroke-width="2" opacity="0.7"/><path aria-label="price: 95099; brand: merc" role="graphics-symbol" aria-roledescription="point" transform="translate(237.7475,90)" d="M2.7386127875258306,0A2.7386127875258306,2.7386127875258306,0,1,1,-2.7386127875258306,0A2.7386127875258306,2.7386127875258306,0,1,1,2.7386127875258306,0" stroke="#54a24b" stroke-width="2" opacity="0.7"/><path aria-label="price: 44995; brand: toyota" role="graphics-symbol" aria-roledescription="point" transform="translate(112.48750000000001,130)" d="M2.7386127875258306,0A2.7386127875258306,2.7386127875258306,0,1,1,-2.7386127875258306,0A2.7386127875258306,2.7386127875258306,0,1,1,2.7386127875258306,0" stroke="#b279a2" stroke-width="2" opacity="0.7"/><path aria-label="price: 39995; brand: ford" role="graphics-symbol" aria-roledescription="point" transform="translate(99.9875,50)" d="M2.7386127875258306,0A2.7386127875258306,2.7386127875258306,0,1,1,-2.7386127875258306,0A2.7386127875258306,2.7386127875258306,0,1,1,2.7386127875258306,0" stroke="#e45756" stroke-width="2" opacity="0.7"/><path aria-label="price: 79950; brand: merc" role="graphics-symbol" aria-roledescription="point" transform="translate(199.875,90)" d="M2.7386127875258306,0A2.7386127875258306,2.7386127875258306,0,1,1,-2.7386127875258306,0A2.7386127875258306,2.7386127875258306,0,1,1,2.7386127875258306,0" stroke="#54a24b" stroke-width="2" opacity="0.7"/><path aria-label="price: 51995; brand: toyota" role="graphics-symbol" aria-roledescription="point" transform="translate(129.98749999999998,130)" d="M2.7386127875258306,0A2.7386127875258306,2.7386127875258306,0,1,1,-2.7386127875258306,0A2.7386127875258306,2.7386127875258306,0,1,1,2.7386127875258306,0" stroke="#b279a2" stroke-width="2" opacity="0.7"/><path aria-label="price: 50995; brand: toyota" role="graphics-symbol" aria-roledescription="point" transform="translate(127.4875,130)" d="M2.7386127875258306,0A2.7386127875258306,2.7386127875258306,0,1,1,-2.7386127875258306,0A2.7386127875258306,2.7386127875258306,0,1,1,2.7386127875258306,0" stroke="#b279a2" stroke-width="2" opacity="0.7"/><path aria-label="price: 99950; brand: bmw" role="graphics-symbol" aria-roledescription="point" transform="translate(249.87499999999997,30)" d="M2.7386127875258306,0A2.7386127875258306,2.7386127875258306,0,1,1,-2.7386127875258306,0A2.7386127875258306,2.7386127875258306,0,1,1,2.7386127875258306,0" stroke="#f58518" stroke-width="2" opacity="0.7"/><path aria-label="price: 37300; brand: ford" role="graphics-symbol" aria-roledescription="point" transform="translate(93.25,50)" d="M2.7386127875258306,0A2.7386127875258306,2.7386127875258306,0,1,1,-2.7386127875258306,0A2.7386127875258306,2.7386127875258306,0,1,1,2.7386127875258306,0" stroke="#e45756" stroke-width="2" opacity="0.7"/><path aria-label="price: 44990; brand: toyota" role="graphics-symbol" aria-roledescription="point" transform="translate(112.475,130)" d="M2.7386127875258306,0A2.7386127875258306,2.7386127875258306,0,1,1,-2.7386127875258306,0A2.7386127875258306,2.7386127875258306,0,1,1,2.7386127875258306,0" stroke="#b279a2" stroke-width="2" opacity="0.7"/><path aria-label="price: 102502; brand: merc" role="graphics-symbol" aria-roledescription="point" transform="translate(256.255,90)" d="M2.7386127875258306,0A2.7386127875258306,2.7386127875258306,0,1,1,-2.7386127875258306,0A2.7386127875258306,2.7386127875258306,0,1,1,2.7386127875258306,0" stroke="#54a24b" stroke-width="2" opacity="0.7"/><path aria-label="price: 57991; brand: vw" role="graphics-symbol" aria-roledescription="point" transform="translate(144.9775,170)" d="M2.7386127875258306,0A2.7386127875258306,2.7386127875258306,0,1,1,-2.7386127875258306,0A2.7386127875258306,2.7386127875258306,0,1,1,2.7386127875258306,0" stroke="#9d755d" stroke-width="2" opacity="0.7"/><path aria-label="price: 42990; brand: toyota" role="graphics-symbol" aria-roledescription="point" transform="translate(107.47500000000001,130)" d="M2.7386127875258306,0A2.7386127875258306,2.7386127875258306,0,1,1,-2.7386127875258306,0A2.7386127875258306,2.7386127875258306,0,1,1,2.7386127875258306,0" stroke="#b279a2" stroke-width="2" opacity="0.7"/><path aria-label="price: 42000; brand: ford" role="graphics-symbol" aria-roledescription="point" transform="translate(105,50)" d="M2.7386127875258306,0A2.7386127875258306,2.7386127875258306,0,1,1,-2.7386127875258306,0A2.7386127875258306,2.7386127875258306,0,1,1,2.7386127875258306,0" stroke="#e45756" stroke-width="2" opacity="0.7"/><path aria-label="price: 35995; brand: hyundi" role="graphics-symbol" aria-roledescription="point" transform="translate(89.9875,70)" d="M2.7386127875258306,0A2.7386127875258306,2.7386127875258306,0,1,1,-2.7386127875258306,0A2.7386127875258306,2.7386127875258306,0,1,1,2.7386127875258306,0" stroke="#72b7b2" stroke-width="2" opacity="0.7"/><path aria-label="price: 87478; brand: merc" role="graphics-symbol" aria-roledescription="point" transform="translate(218.695,90)" d="M2.7386127875258306,0A2.7386127875258306,2.7386127875258306,0,1,1,-2.7386127875258306,0A2.7386127875258306,2.7386127875258306,0,1,1,2.7386127875258306,0" stroke="#54a24b" stroke-width="2" opacity="0.7"/><path aria-label="price: 33999; brand: hyundi" role="graphics-symbol" aria-roledescription="point" transform="translate(84.9975,70)" d="M2.7386127875258306,0A2.7386127875258306,2.7386127875258306,0,1,1,-2.7386127875258306,0A2.7386127875258306,2.7386127875258306,0,1,1,2.7386127875258306,0" stroke="#72b7b2" stroke-width="2" opacity="0.7"/><path aria-label="price: 34995; brand: hyundi" role="graphics-symbol" aria-roledescription="point" transform="translate(87.4875,70)" d="M2.7386127875258306,0A2.7386127875258306,2.7386127875258306,0,1,1,-2.7386127875258306,0A2.7386127875258306,2.7386127875258306,0,1,1,2.7386127875258306,0" stroke="#72b7b2" stroke-width="2" opacity="0.7"/><path aria-label="price: 34000; brand: hyundi" role="graphics-symbol" aria-roledescription="point" transform="translate(85,70)" d="M2.7386127875258306,0A2.7386127875258306,2.7386127875258306,0,1,1,-2.7386127875258306,0A2.7386127875258306,2.7386127875258306,0,1,1,2.7386127875258306,0" stroke="#72b7b2" stroke-width="2" opacity="0.7"/><path aria-label="price: 82099; brand: merc" role="graphics-symbol" aria-roledescription="point" transform="translate(205.24749999999997,90)" d="M2.7386127875258306,0A2.7386127875258306,2.7386127875258306,0,1,1,-2.7386127875258306,0A2.7386127875258306,2.7386127875258306,0,1,1,2.7386127875258306,0" stroke="#54a24b" stroke-width="2" opacity="0.7"/><path aria-label="price: 35985; brand: hyundi" role="graphics-symbol" aria-roledescription="point" transform="translate(89.9625,70)" d="M2.7386127875258306,0A2.7386127875258306,2.7386127875258306,0,1,1,-2.7386127875258306,0A2.7386127875258306,2.7386127875258306,0,1,1,2.7386127875258306,0" stroke="#72b7b2" stroke-width="2" opacity="0.7"/><path aria-label="price: 119995; brand: audi" role="graphics-symbol" aria-roledescription="point" transform="translate(299.9875,10)" d="M2.7386127875258306,0A2.7386127875258306,2.7386127875258306,0,1,1,-2.7386127875258306,0A2.7386127875258306,2.7386127875258306,0,1,1,2.7386127875258306,0" stroke="#4c78a8" stroke-width="2" opacity="0.7"/><path aria-label="price: 135000; brand: audi" role="graphics-symbol" aria-roledescription="point" transform="translate(337.5,10)" d="M2.7386127875258306,0A2.7386127875258306,2.7386127875258306,0,1,1,-2.7386127875258306,0A2.7386127875258306,2.7386127875258306,0,1,1,2.7386127875258306,0" stroke="#4c78a8" stroke-width="2" opacity="0.7"/><path aria-label="price: 50995; brand: vw" role="graphics-symbol" aria-roledescription="point" transform="translate(127.4875,170)" d="M2.7386127875258306,0A2.7386127875258306,2.7386127875258306,0,1,1,-2.7386127875258306,0A2.7386127875258306,2.7386127875258306,0,1,1,2.7386127875258306,0" stroke="#9d755d" stroke-width="2" opacity="0.7"/><path aria-label="price: 81900; brand: merc" role="graphics-symbol" aria-roledescription="point" transform="translate(204.75,90)" d="M2.7386127875258306,0A2.7386127875258306,2.7386127875258306,0,1,1,-2.7386127875258306,0A2.7386127875258306,2.7386127875258306,0,1,1,2.7386127875258306,0" stroke="#54a24b" stroke-width="2" opacity="0.7"/><path aria-label="price: 43995; brand: hyundi" role="graphics-symbol" aria-roledescription="point" transform="translate(109.9875,70)" d="M2.7386127875258306,0A2.7386127875258306,2.7386127875258306,0,1,1,-2.7386127875258306,0A2.7386127875258306,2.7386127875258306,0,1,1,2.7386127875258306,0" stroke="#72b7b2" stroke-width="2" opacity="0.7"/><path aria-label="price: 51995; brand: toyota" role="graphics-symbol" aria-roledescription="point" transform="translate(129.98749999999998,130)" d="M2.7386127875258306,0A2.7386127875258306,2.7386127875258306,0,1,1,-2.7386127875258306,0A2.7386127875258306,2.7386127875258306,0,1,1,2.7386127875258306,0" stroke="#b279a2" stroke-width="2" opacity="0.7"/><path aria-label="price: 112990; brand: audi" role="graphics-symbol" aria-roledescription="point" transform="translate(282.47499999999997,10)" d="M2.7386127875258306,0A2.7386127875258306,2.7386127875258306,0,1,1,-2.7386127875258306,0A2.7386127875258306,2.7386127875258306,0,1,1,2.7386127875258306,0" stroke="#4c78a8" stroke-width="2" opacity="0.7"/><path aria-label="price: 33695; brand: hyundi" role="graphics-symbol" aria-roledescription="point" transform="translate(84.2375,70)" d="M2.7386127875258306,0A2.7386127875258306,2.7386127875258306,0,1,1,-2.7386127875258306,0A2.7386127875258306,2.7386127875258306,0,1,1,2.7386127875258306,0" stroke="#72b7b2" stroke-width="2" opacity="0.7"/><path aria-label="price: 79995; brand: merc" role="graphics-symbol" aria-roledescription="point" transform="translate(199.9875,90)" d="M2.7386127875258306,0A2.7386127875258306,2.7386127875258306,0,1,1,-2.7386127875258306,0A2.7386127875258306,2.7386127875258306,0,1,1,2.7386127875258306,0" stroke="#54a24b" stroke-width="2" opacity="0.7"/><path aria-label="price: 124999; brand: merc" role="graphics-symbol" aria-roledescription="point" transform="translate(312.4975,90)" d="M2.7386127875258306,0A2.7386127875258306,2.7386127875258306,0,1,1,-2.7386127875258306,0A2.7386127875258306,2.7386127875258306,0,1,1,2.7386127875258306,0" stroke="#54a24b" stroke-width="2" opacity="0.7"/><path aria-label="price: 44995; brand: toyota" role="graphics-symbol" aria-roledescription="point" transform="translate(112.48750000000001,130)" d="M2.7386127875258306,0A2.7386127875258306,2.7386127875258306,0,1,1,-2.7386127875258306,0A2.7386127875258306,2.7386127875258306,0,1,1,2.7386127875258306,0" stroke="#b279a2" stroke-width="2" opacity="0.7"/><path aria-label="price: 95950; brand: audi" role="graphics-symbol" aria-roledescription="point" transform="translate(239.87500000000003,10)" d="M2.7386127875258306,0A2.7386127875258306,2.7386127875258306,0,1,1,-2.7386127875258306,0A2.7386127875258306,2.7386127875258306,0,1,1,2.7386127875258306,0" stroke="#4c78a8" stroke-width="2" opacity="0.7"/><path aria-label="price: 133900; brand: audi" role="graphics-symbol" aria-roledescription="point" transform="translate(334.75,10)" d="M2.7386127875258306,0A2.7386127875258306,2.7386127875258306,0,1,1,-2.7386127875258306,0A2.7386127875258306,2.7386127875258306,0,1,1,2.7386127875258306,0" stroke="#4c78a8" stroke-width="2" opacity="0.7"/><path aria-label="price: 40365; brand: hyundi" role="graphics-symbol" aria-roledescription="point" transform="translate(100.91250000000001,70)" d="M2.7386127875258306,0A2.7386127875258306,2.7386127875258306,0,1,1,-2.7386127875258306,0A2.7386127875258306,2.7386127875258306,0,1,1,2.7386127875258306,0" stroke="#72b7b2" stroke-width="2" opacity="0.7"/><path aria-label="price: 84898; brand: bmw" role="graphics-symbol" aria-roledescription="point" transform="translate(212.245,30)" d="M2.7386127875258306,0A2.7386127875258306,2.7386127875258306,0,1,1,-2.7386127875258306,0A2.7386127875258306,2.7386127875258306,0,1,1,2.7386127875258306,0" stroke="#f58518" stroke-width="2" opacity="0.7"/><path aria-label="price: 48995; brand: toyota" role="graphics-symbol" aria-roledescription="point" transform="translate(122.4875,130)" d="M2.7386127875258306,0A2.7386127875258306,2.7386127875258306,0,1,1,-2.7386127875258306,0A2.7386127875258306,2.7386127875258306,0,1,1,2.7386127875258306,0" stroke="#b279a2" stroke-width="2" opacity="0.7"/><path aria-label="price: 37990; brand: ford" role="graphics-symbol" aria-roledescription="point" transform="translate(94.975,50)" d="M2.7386127875258306,0A2.7386127875258306,2.7386127875258306,0,1,1,-2.7386127875258306,0A2.7386127875258306,2.7386127875258306,0,1,1,2.7386127875258306,0" stroke="#e45756" stroke-width="2" opacity="0.7"/><path aria-label="price: 117990; brand: audi" role="graphics-symbol" aria-roledescription="point" transform="translate(294.97499999999997,10)" d="M2.7386127875258306,0A2.7386127875258306,2.7386127875258306,0,1,1,-2.7386127875258306,0A2.7386127875258306,2.7386127875258306,0,1,1,2.7386127875258306,0" stroke="#4c78a8" stroke-width="2" opacity="0.7"/><path aria-label="price: 35995; brand: hyundi" role="graphics-symbol" aria-roledescription="point" transform="translate(89.9875,70)" d="M2.7386127875258306,0A2.7386127875258306,2.7386127875258306,0,1,1,-2.7386127875258306,0A2.7386127875258306,2.7386127875258306,0,1,1,2.7386127875258306,0" stroke="#72b7b2" stroke-width="2" opacity="0.7"/><path aria-label="price: 36795; brand: hyundi" role="graphics-symbol" aria-roledescription="point" transform="translate(91.9875,70)" d="M2.7386127875258306,0A2.7386127875258306,2.7386127875258306,0,1,1,-2.7386127875258306,0A2.7386127875258306,2.7386127875258306,0,1,1,2.7386127875258306,0" stroke="#72b7b2" stroke-width="2" opacity="0.7"/><path aria-label="price: 135771; brand: merc" role="graphics-symbol" aria-roledescription="point" transform="translate(339.4275,90)" d="M2.7386127875258306,0A2.7386127875258306,2.7386127875258306,0,1,1,-2.7386127875258306,0A2.7386127875258306,2.7386127875258306,0,1,1,2.7386127875258306,0" stroke="#54a24b" stroke-width="2" opacity="0.7"/><path aria-label="price: 37500; brand: ford" role="graphics-symbol" aria-roledescription="point" transform="translate(93.75,50)" d="M2.7386127875258306,0A2.7386127875258306,2.7386127875258306,0,1,1,-2.7386127875258306,0A2.7386127875258306,2.7386127875258306,0,1,1,2.7386127875258306,0" stroke="#e45756" stroke-width="2" opacity="0.7"/><path aria-label="price: 57991; brand: vw" role="graphics-symbol" aria-roledescription="point" transform="translate(144.9775,170)" d="M2.7386127875258306,0A2.7386127875258306,2.7386127875258306,0,1,1,-2.7386127875258306,0A2.7386127875258306,2.7386127875258306,0,1,1,2.7386127875258306,0" stroke="#9d755d" stroke-width="2" opacity="0.7"/><path aria-label="price: 36995; brand: hyundi" role="graphics-symbol" aria-roledescription="point" transform="translate(92.4875,70)" d="M2.7386127875258306,0A2.7386127875258306,2.7386127875258306,0,1,1,-2.7386127875258306,0A2.7386127875258306,2.7386127875258306,0,1,1,2.7386127875258306,0" stroke="#72b7b2" stroke-width="2" opacity="0.7"/><path aria-label="price: 33250; brand: hyundi" role="graphics-symbol" aria-roledescription="point" transform="translate(83.125,70)" d="M2.7386127875258306,0A2.7386127875258306,2.7386127875258306,0,1,1,-2.7386127875258306,0A2.7386127875258306,2.7386127875258306,0,1,1,2.7386127875258306,0" stroke="#72b7b2" stroke-width="2" opacity="0.7"/><path aria-label="price: 33999; brand: hyundi" role="graphics-symbol" aria-roledescription="point" transform="translate(84.9975,70)" d="M2.7386127875258306,0A2.7386127875258306,2.7386127875258306,0,1,1,-2.7386127875258306,0A2.7386127875258306,2.7386127875258306,0,1,1,2.7386127875258306,0" stroke="#72b7b2" stroke-width="2" opacity="0.7"/><path aria-label="price: 145000; brand: audi" role="graphics-symbol" aria-roledescription="point" transform="translate(362.5,10)" d="M2.7386127875258306,0A2.7386127875258306,2.7386127875258306,0,1,1,-2.7386127875258306,0A2.7386127875258306,2.7386127875258306,0,1,1,2.7386127875258306,0" stroke="#4c78a8" stroke-width="2" opacity="0.7"/><path aria-label="price: 33799; brand: hyundi" role="graphics-symbol" aria-roledescription="point" transform="translate(84.4975,70)" d="M2.7386127875258306,0A2.7386127875258306,2.7386127875258306,0,1,1,-2.7386127875258306,0A2.7386127875258306,2.7386127875258306,0,1,1,2.7386127875258306,0" stroke="#72b7b2" stroke-width="2" opacity="0.7"/><path aria-label="price: 76980; brand: merc" role="graphics-symbol" aria-roledescription="point" transform="translate(192.45000000000002,90)" d="M2.7386127875258306,0A2.7386127875258306,2.7386127875258306,0,1,1,-2.7386127875258306,0A2.7386127875258306,2.7386127875258306,0,1,1,2.7386127875258306,0" stroke="#54a24b" stroke-width="2" opacity="0.7"/><path aria-label="price: 33900; brand: hyundi" role="graphics-symbol" aria-roledescription="point" transform="translate(84.75,70)" d="M2.7386127875258306,0A2.7386127875258306,2.7386127875258306,0,1,1,-2.7386127875258306,0A2.7386127875258306,2.7386127875258306,0,1,1,2.7386127875258306,0" stroke="#72b7b2" stroke-width="2" opacity="0.7"/><path aria-label="price: 125000; brand: audi" role="graphics-symbol" aria-roledescription="point" transform="translate(312.5,10)" d="M2.7386127875258306,0A2.7386127875258306,2.7386127875258306,0,1,1,-2.7386127875258306,0A2.7386127875258306,2.7386127875258306,0,1,1,2.7386127875258306,0" stroke="#4c78a8" stroke-width="2" opacity="0.7"/><path aria-label="price: 36495; brand: hyundi" role="graphics-symbol" aria-roledescription="point" transform="translate(91.23750000000001,70)" d="M2.7386127875258306,0A2.7386127875258306,2.7386127875258306,0,1,1,-2.7386127875258306,0A2.7386127875258306,2.7386127875258306,0,1,1,2.7386127875258306,0" stroke="#72b7b2" stroke-width="2" opacity="0.7"/><path aria-label="price: 41000; brand: ford" role="graphics-symbol" aria-roledescription="point" transform="translate(102.49999999999999,50)" d="M2.7386127875258306,0A2.7386127875258306,2.7386127875258306,0,1,1,-2.7386127875258306,0A2.7386127875258306,2.7386127875258306,0,1,1,2.7386127875258306,0" stroke="#e45756" stroke-width="2" opacity="0.7"/><path aria-label="price: 33949; brand: hyundi" role="graphics-symbol" aria-roledescription="point" transform="translate(84.8725,70)" d="M2.7386127875258306,0A2.7386127875258306,2.7386127875258306,0,1,1,-2.7386127875258306,0A2.7386127875258306,2.7386127875258306,0,1,1,2.7386127875258306,0" stroke="#72b7b2" stroke-width="2" opacity="0.7"/><path aria-label="price: 76469; brand: merc" role="graphics-symbol" aria-roledescription="point" transform="translate(191.17249999999999,90)" d="M2.7386127875258306,0A2.7386127875258306,2.7386127875258306,0,1,1,-2.7386127875258306,0A2.7386127875258306,2.7386127875258306,0,1,1,2.7386127875258306,0" stroke="#54a24b" stroke-width="2" opacity="0.7"/><path aria-label="price: 52291; brand: toyota" role="graphics-symbol" aria-roledescription="point" transform="translate(130.7275,130)" d="M2.7386127875258306,0A2.7386127875258306,2.7386127875258306,0,1,1,-2.7386127875258306,0A2.7386127875258306,2.7386127875258306,0,1,1,2.7386127875258306,0" stroke="#b279a2" stroke-width="2" opacity="0.7"/><path aria-label="price: 88980; brand: bmw" role="graphics-symbol" aria-roledescription="point" transform="translate(222.45,30)" d="M2.7386127875258306,0A2.7386127875258306,2.7386127875258306,0,1,1,-2.7386127875258306,0A2.7386127875258306,2.7386127875258306,0,1,1,2.7386127875258306,0" stroke="#f58518" stroke-width="2" opacity="0.7"/><path aria-label="price: 42999; brand: ford" role="graphics-symbol" aria-roledescription="point" transform="translate(107.4975,50)" d="M2.7386127875258306,0A2.7386127875258306,2.7386127875258306,0,1,1,-2.7386127875258306,0A2.7386127875258306,2.7386127875258306,0,1,1,2.7386127875258306,0" stroke="#e45756" stroke-width="2" opacity="0.7"/><path aria-label="price: 33791; brand: hyundi" role="graphics-symbol" aria-roledescription="point" transform="translate(84.4775,70)" d="M2.7386127875258306,0A2.7386127875258306,2.7386127875258306,0,1,1,-2.7386127875258306,0A2.7386127875258306,2.7386127875258306,0,1,1,2.7386127875258306,0" stroke="#72b7b2" stroke-width="2" opacity="0.7"/><path aria-label="price: 93950; brand: audi" role="graphics-symbol" aria-roledescription="point" transform="translate(234.875,10)" d="M2.7386127875258306,0A2.7386127875258306,2.7386127875258306,0,1,1,-2.7386127875258306,0A2.7386127875258306,2.7386127875258306,0,1,1,2.7386127875258306,0" stroke="#4c78a8" stroke-width="2" opacity="0.7"/><path aria-label="price: 45950; brand: toyota" role="graphics-symbol" aria-roledescription="point" transform="translate(114.875,130)" d="M2.7386127875258306,0A2.7386127875258306,2.7386127875258306,0,1,1,-2.7386127875258306,0A2.7386127875258306,2.7386127875258306,0,1,1,2.7386127875258306,0" stroke="#b279a2" stroke-width="2" opacity="0.7"/><path aria-label="price: 37995; brand: hyundi" role="graphics-symbol" aria-roledescription="point" transform="translate(94.9875,70)" d="M2.7386127875258306,0A2.7386127875258306,2.7386127875258306,0,1,1,-2.7386127875258306,0A2.7386127875258306,2.7386127875258306,0,1,1,2.7386127875258306,0" stroke="#72b7b2" stroke-width="2" opacity="0.7"/><path aria-label="price: 57991; brand: vw" role="graphics-symbol" aria-roledescription="point" transform="translate(144.9775,170)" d="M2.7386127875258306,0A2.7386127875258306,2.7386127875258306,0,1,1,-2.7386127875258306,0A2.7386127875258306,2.7386127875258306,0,1,1,2.7386127875258306,0" stroke="#9d755d" stroke-width="2" opacity="0.7"/><path aria-label="price: 34000; brand: hyundi" role="graphics-symbol" aria-roledescription="point" transform="translate(85,70)" d="M2.7386127875258306,0A2.7386127875258306,2.7386127875258306,0,1,1,-2.7386127875258306,0A2.7386127875258306,2.7386127875258306,0,1,1,2.7386127875258306,0" stroke="#72b7b2" stroke-width="2" opacity="0.7"/><path aria-label="price: 56995; brand: vw" role="graphics-symbol" aria-roledescription="point" transform="translate(142.48749999999998,170)" d="M2.7386127875258306,0A2.7386127875258306,2.7386127875258306,0,1,1,-2.7386127875258306,0A2.7386127875258306,2.7386127875258306,0,1,1,2.7386127875258306,0" stroke="#9d755d" stroke-width="2" opacity="0.7"/><path aria-label="price: 36990; brand: hyundi" role="graphics-symbol" aria-roledescription="point" transform="translate(92.475,70)" d="M2.7386127875258306,0A2.7386127875258306,2.7386127875258306,0,1,1,-2.7386127875258306,0A2.7386127875258306,2.7386127875258306,0,1,1,2.7386127875258306,0" stroke="#72b7b2" stroke-width="2" opacity="0.7"/><path aria-label="price: 72950; brand: merc" role="graphics-symbol" aria-roledescription="point" transform="translate(182.375,90)" d="M2.7386127875258306,0A2.7386127875258306,2.7386127875258306,0,1,1,-2.7386127875258306,0A2.7386127875258306,2.7386127875258306,0,1,1,2.7386127875258306,0" stroke="#54a24b" stroke-width="2" opacity="0.7"/><path aria-label="price: 139995; brand: merc" role="graphics-symbol" aria-roledescription="point" transform="translate(349.9875,90)" d="M2.7386127875258306,0A2.7386127875258306,2.7386127875258306,0,1,1,-2.7386127875258306,0A2.7386127875258306,2.7386127875258306,0,1,1,2.7386127875258306,0" stroke="#54a24b" stroke-width="2" opacity="0.7"/><path aria-label="price: 48000; brand: ford" role="graphics-symbol" aria-roledescription="point" transform="translate(120,50)" d="M2.7386127875258306,0A2.7386127875258306,2.7386127875258306,0,1,1,-2.7386127875258306,0A2.7386127875258306,2.7386127875258306,0,1,1,2.7386127875258306,0" stroke="#e45756" stroke-width="2" opacity="0.7"/><path aria-label="price: 45995; brand: toyota" role="graphics-symbol" aria-roledescription="point" transform="translate(114.9875,130)" d="M2.7386127875258306,0A2.7386127875258306,2.7386127875258306,0,1,1,-2.7386127875258306,0A2.7386127875258306,2.7386127875258306,0,1,1,2.7386127875258306,0" stroke="#b279a2" stroke-width="2" opacity="0.7"/><path aria-label="price: 54994; brand: vw" role="graphics-symbol" aria-roledescription="point" transform="translate(137.48499999999999,170)" d="M2.7386127875258306,0A2.7386127875258306,2.7386127875258306,0,1,1,-2.7386127875258306,0A2.7386127875258306,2.7386127875258306,0,1,1,2.7386127875258306,0" stroke="#9d755d" stroke-width="2" opacity="0.7"/><path aria-label="price: 48999; brand: ford" role="graphics-symbol" aria-roledescription="point" transform="translate(122.49749999999999,50)" d="M2.7386127875258306,0A2.7386127875258306,2.7386127875258306,0,1,1,-2.7386127875258306,0A2.7386127875258306,2.7386127875258306,0,1,1,2.7386127875258306,0" stroke="#e45756" stroke-width="2" opacity="0.7"/><path aria-label="price: 104948; brand: audi" role="graphics-symbol" aria-roledescription="point" transform="translate(262.37,10)" d="M2.7386127875258306,0A2.7386127875258306,2.7386127875258306,0,1,1,-2.7386127875258306,0A2.7386127875258306,2.7386127875258306,0,1,1,2.7386127875258306,0" stroke="#4c78a8" stroke-width="2" opacity="0.7"/><path aria-label="price: 32995; brand: hyundi" role="graphics-symbol" aria-roledescription="point" transform="translate(82.4875,70)" d="M2.7386127875258306,0A2.7386127875258306,2.7386127875258306,0,1,1,-2.7386127875258306,0A2.7386127875258306,2.7386127875258306,0,1,1,2.7386127875258306,0" stroke="#72b7b2" stroke-width="2" opacity="0.7"/></g><g class="mark-rule role-mark layer_0_layer_1_layer_0_marks" aria-hidden="true"><line transform="translate(3,70)" x2="18.245" y2="0" stroke="black"/><line transform="translate(1.125,150)" x2="19.62" y2="0" stroke="black"/><line transform="translate(11.625,10)" x2="51.4375" y2="0" stroke="black"/><line transform="translate(3.25,170)" x2="29.237500000000004" y2="0" stroke="black"/><line transform="translate(10.9975,110)" x2="12.1275" y2="0" stroke="black"/><line transform="translate(3.7249999999999996,90)" x2="41.231875" y2="0" stroke="black"/><line transform="translate(3,130)" x2="27.125" y2="0" stroke="black"/><line transform="translate(8.737499999999999,30)" x2="51.24062500000001" y2="0" stroke="black"/><line transform="translate(2.125,50)" x2="22.648125" y2="0" stroke="black"/></g><g class="mark-rule role-mark layer_0_layer_1_layer_1_marks" aria-hidden="true"><line transform="translate(45.368750000000006,70)" x2="36.05624999999999" y2="0" stroke="black"/><line transform="translate(37.45,150)" x2="16.275" y2="0" stroke="black"/><line transform="translate(129.9825,10)" x2="81.25750000000002" y2="0" stroke="black"/><line transform="translate(69.9875,170)" x2="56.000000000000014" y2="0" stroke="black"/><line transform="translate(44.95,110)" x2="17.310000000000002" y2="0" stroke="black"/><line transform="translate(99.68125,90)" x2="80.30624999999998" y2="0" stroke="black"/><line transform="translate(59.24,130)" x2="43.247499999999995" y2="0" stroke="black"/><line transform="translate(120,30)" x2="79.97750000000002" y2="0" stroke="black"/><line transform="translate(52,50)" x2="38" y2="0" stroke="black"/></g><g class="mark-rect role-mark layer_1_layer_0_marks" role="graphics-object" aria-roledescription="rect mark container"><path aria-label="price: 8498; brand: hyundi; upper_box_price: 18147.5; Max of price: 43995; Q3 of price: 18147.5; Median of price: 11000; Q1 of price: 8498; Min of price: 1200" role="graphics-symbol" aria-roledescription="box" d="M21.245,63h24.123750000000005v14h-24.123750000000005Z" fill="#72b7b2"/><path aria-label="price: 8298; brand: vauxhall; upper_box_price: 14980; Max of price: 21490; Q3 of price: 14980; Median of price: 12995; Q1 of price: 8298; Min of price: 450" role="graphics-symbol" aria-roledescription="box" d="M20.745,143h16.705000000000002v14h-16.705000000000002Z" fill="#ff9da6"/><path aria-label="price: 25225; brand: audi; upper_box_price: 51993; Max of price: 145000; Q3 of price: 51993; Median of price: 39881; Q1 of price: 25225; Min of price: 4650" role="graphics-symbol" aria-roledescription="box" d="M63.0625,3h66.91999999999999v14h-66.91999999999999Z" fill="#4c78a8"/><path aria-label="price: 12995; brand: vw; upper_box_price: 27995; Max of price: 69994; Q3 of price: 27995; Median of price: 20392; Q1 of price: 12995; Min of price: 1300" role="graphics-symbol" aria-roledescription="box" d="M32.487500000000004,163h37.49999999999999v14h-37.49999999999999Z" fill="#9d755d"/><path aria-label="price: 9250; brand: skoda; upper_box_price: 17980; Max of price: 24904; Q3 of price: 17980; Median of price: 14950; Q1 of price: 9250; Min of price: 4399" role="graphics-symbol" aria-roledescription="box" d="M23.125,103h21.825000000000003v14h-21.825000000000003Z" fill="#eeca3b"/><path aria-label="price: 17982.75; brand: merc; upper_box_price: 39872.5; Max of price: 139995; Q3 of price: 39872.5; Median of price: 25913; Q1 of price: 17982.75; Min of price: 1490" role="graphics-symbol" aria-roledescription="box" d="M44.956875000000004,83h54.724375v14h-54.724375Z" fill="#54a24b"/><path aria-label="price: 12050; brand: toyota; upper_box_price: 23696; Max of price: 54991; Q3 of price: 23696; Median of price: 17498; Q1 of price: 12050; Min of price: 1200" role="graphics-symbol" aria-roledescription="box" d="M30.125,123h29.115000000000002v14h-29.115000000000002Z" fill="#b279a2"/><path aria-label="price: 23991.25; brand: bmw; upper_box_price: 48000; Max of price: 99950; Q3 of price: 48000; Median of price: 35480; Q1 of price: 23991.25; Min of price: 3495" role="graphics-symbol" aria-roledescription="box" d="M59.978125000000006,23h60.021874999999994v14h-60.021874999999994Z" fill="#f58518"/><path aria-label="price: 9909.25; brand: ford; upper_box_price: 20800; Max of price: 49999; Q3 of price: 20800; Median of price: 16699.5; Q1 of price: 9909.25; Min of price: 850" role="graphics-symbol" aria-roledescription="box" d="M24.773125,43h27.226875v14h-27.226875Z" fill="#e45756"/></g><g class="mark-rect role-mark layer_1_layer_1_marks" aria-hidden="true"><path d="M27.000000000000004,63h1v14h-1Z" fill="white" opacity="0.7"/><path d="M31.987500000000004,143h1v14h-1Z" fill="white" opacity="0.7"/><path d="M99.2025,3h1v14h-1Z" fill="white" opacity="0.7"/><path d="M50.480000000000004,163h1v14h-1Z" fill="white" opacity="0.7"/><path d="M36.875,103h1v14h-1Z" fill="white" opacity="0.7"/><path d="M64.2825,83h1v14h-1Z" fill="white" opacity="0.7"/><path d="M43.245,123h1v14h-1Z" fill="white" opacity="0.7"/><path d="M88.2,23h1v14h-1Z" fill="white" opacity="0.7"/><path d="M41.24875,43h1v14h-1Z" fill="white" opacity="0.7"/></g><g class="mark-group role-legend" role="graphics-symbol" aria-roledescription="legend" aria-label="Symbol legend titled 'brand' for fill color and stroke color with 9 values: audi, bmw, ford, hyundi, merc, ending with vw"><g transform="translate(418,0)"><path class="background" aria-hidden="true" d="M0,0h54v157h-54Z" pointer-events="none"/><g><g class="mark-group role-legend-entry"><g transform="translate(0,16)"><path class="background" aria-hidden="true" d="M0,0h0v0h0Z" pointer-events="none"/><g><g class="mark-group role-scope" role="graphics-object" aria-roledescription="group mark container"><g transform="translate(0,0)"><path class="background" aria-hidden="true" d="M0,0h54v12.5h-54Z" pointer-events="none" opacity="1"/><g><g class="mark-symbol role-legend-symbol" pointer-events="none"><path transform="translate(6,6)" d="M5,0A5,5,0,1,1,-5,0A5,5,0,1,1,5,0" fill="#4c78a8" stroke="#4c78a8" stroke-width="1.5" opacity="0.7"/></g><g class="mark-text role-legend-label" pointer-events="none"><text text-anchor="start" transform="translate(16,9)" font-family="sans-serif" font-size="10px" fill="#000" opacity="1">audi</text></g></g><path class="foreground" aria-hidden="true" d="" pointer-events="none" display="none"/></g><g transform="translate(0,16)"><path class="background" aria-hidden="true" d="M0,0h54v12.5h-54Z" pointer-events="none" opacity="1"/><g><g class="mark-symbol role-legend-symbol" pointer-events="none"><path transform="translate(6,6)" d="M5,0A5,5,0,1,1,-5,0A5,5,0,1,1,5,0" fill="#f58518" stroke="#f58518" stroke-width="1.5" opacity="0.7"/></g><g class="mark-text role-legend-label" pointer-events="none"><text text-anchor="start" transform="translate(16,9)" font-family="sans-serif" font-size="10px" fill="#000" opacity="1">bmw</text></g></g><path class="foreground" aria-hidden="true" d="" pointer-events="none" display="none"/></g><g transform="translate(0,32)"><path class="background" aria-hidden="true" d="M0,0h54v12.5h-54Z" pointer-events="none" opacity="1"/><g><g class="mark-symbol role-legend-symbol" pointer-events="none"><path transform="translate(6,6)" d="M5,0A5,5,0,1,1,-5,0A5,5,0,1,1,5,0" fill="#e45756" stroke="#e45756" stroke-width="1.5" opacity="0.7"/></g><g class="mark-text role-legend-label" pointer-events="none"><text text-anchor="start" transform="translate(16,9)" font-family="sans-serif" font-size="10px" fill="#000" opacity="1">ford</text></g></g><path class="foreground" aria-hidden="true" d="" pointer-events="none" display="none"/></g><g transform="translate(0,48)"><path class="background" aria-hidden="true" d="M0,0h54v12.5h-54Z" pointer-events="none" opacity="1"/><g><g class="mark-symbol role-legend-symbol" pointer-events="none"><path transform="translate(6,6)" d="M5,0A5,5,0,1,1,-5,0A5,5,0,1,1,5,0" fill="#72b7b2" stroke="#72b7b2" stroke-width="1.5" opacity="0.7"/></g><g class="mark-text role-legend-label" pointer-events="none"><text text-anchor="start" transform="translate(16,9)" font-family="sans-serif" font-size="10px" fill="#000" opacity="1">hyundi</text></g></g><path class="foreground" aria-hidden="true" d="" pointer-events="none" display="none"/></g><g transform="translate(0,64)"><path class="background" aria-hidden="true" d="M0,0h54v12.5h-54Z" pointer-events="none" opacity="1"/><g><g class="mark-symbol role-legend-symbol" pointer-events="none"><path transform="translate(6,6)" d="M5,0A5,5,0,1,1,-5,0A5,5,0,1,1,5,0" fill="#54a24b" stroke="#54a24b" stroke-width="1.5" opacity="0.7"/></g><g class="mark-text role-legend-label" pointer-events="none"><text text-anchor="start" transform="translate(16,9)" font-family="sans-serif" font-size="10px" fill="#000" opacity="1">merc</text></g></g><path class="foreground" aria-hidden="true" d="" pointer-events="none" display="none"/></g><g transform="translate(0,80)"><path class="background" aria-hidden="true" d="M0,0h54v12.5h-54Z" pointer-events="none" opacity="1"/><g><g class="mark-symbol role-legend-symbol" pointer-events="none"><path transform="translate(6,6)" d="M5,0A5,5,0,1,1,-5,0A5,5,0,1,1,5,0" fill="#eeca3b" stroke="#eeca3b" stroke-width="1.5" opacity="0.7"/></g><g class="mark-text role-legend-label" pointer-events="none"><text text-anchor="start" transform="translate(16,9)" font-family="sans-serif" font-size="10px" fill="#000" opacity="1">skoda</text></g></g><path class="foreground" aria-hidden="true" d="" pointer-events="none" display="none"/></g><g transform="translate(0,96)"><path class="background" aria-hidden="true" d="M0,0h54v12.5h-54Z" pointer-events="none" opacity="1"/><g><g class="mark-symbol role-legend-symbol" pointer-events="none"><path transform="translate(6,6)" d="M5,0A5,5,0,1,1,-5,0A5,5,0,1,1,5,0" fill="#b279a2" stroke="#b279a2" stroke-width="1.5" opacity="0.7"/></g><g class="mark-text role-legend-label" pointer-events="none"><text text-anchor="start" transform="translate(16,9)" font-family="sans-serif" font-size="10px" fill="#000" opacity="1">toyota</text></g></g><path class="foreground" aria-hidden="true" d="" pointer-events="none" display="none"/></g><g transform="translate(0,112)"><path class="background" aria-hidden="true" d="M0,0h54v12.5h-54Z" pointer-events="none" opacity="1"/><g><g class="mark-symbol role-legend-symbol" pointer-events="none"><path transform="translate(6,6)" d="M5,0A5,5,0,1,1,-5,0A5,5,0,1,1,5,0" fill="#ff9da6" stroke="#ff9da6" stroke-width="1.5" opacity="0.7"/></g><g class="mark-text role-legend-label" pointer-events="none"><text text-anchor="start" transform="translate(16,9)" font-family="sans-serif" font-size="10px" fill="#000" opacity="1">vauxhall</text></g></g><path class="foreground" aria-hidden="true" d="" pointer-events="none" display="none"/></g><g transform="translate(0,128)"><path class="background" aria-hidden="true" d="M0,0h54v12.5h-54Z" pointer-events="none" opacity="1"/><g><g class="mark-symbol role-legend-symbol" pointer-events="none"><path transform="translate(6,6)" d="M5,0A5,5,0,1,1,-5,0A5,5,0,1,1,5,0" fill="#9d755d" stroke="#9d755d" stroke-width="1.5" opacity="0.7"/></g><g class="mark-text role-legend-label" pointer-events="none"><text text-anchor="start" transform="translate(16,9)" font-family="sans-serif" font-size="10px" fill="#000" opacity="1">vw</text></g></g><path class="foreground" aria-hidden="true" d="" pointer-events="none" display="none"/></g></g></g><path class="foreground" aria-hidden="true" d="" pointer-events="none" display="none"/></g></g><g class="mark-text role-legend-title" pointer-events="none"><text text-anchor="start" transform="translate(0,9)" font-family="sans-serif" font-size="11px" font-weight="bold" fill="#000" opacity="1">brand</text></g></g><path class="foreground" aria-hidden="true" d="" pointer-events="none" display="none"/></g></g><g class="mark-group role-title"><g transform="translate(200,-17)"><path class="background" aria-hidden="true" d="M0,0h0v0h0Z" pointer-events="none"/><g><g class="mark-text role-title-text" role="graphics-symbol" aria-roledescription="title" aria-label="Title text 'Price Distribution by Brand'" pointer-events="none"><text text-anchor="middle" transform="translate(0,10)" font-family="sans-serif" font-size="13px" font-weight="bold" fill="#000" opacity="1">Price Distribution by Brand</text></g></g><path class="foreground" aria-hidden="true" d="" pointer-events="none" display="none"/></g></g></g><path class="foreground" aria-hidden="true" d="" display="none"/></g></g></g></svg>